<svg width="109" height="123" viewBox="0 0 109 123" fill="none" xmlns="http://www.w3.org/2000/svg">
<path d="M8.71406 76.6657C7.95625 76.3015 7.13791 76.2593 6.31377 76.2593H3.60919V86.4199H5.19032C5.19032 85.8447 5.15218 85.2471 5.39926 84.7099C5.79806 83.845 6.72667 83.4295 7.53755 83.0372C8.40729 82.6175 9.37155 82.2078 9.94862 81.3942C10.4602 80.6733 10.5995 79.7182 10.4502 78.8566C10.2786 77.8716 9.60371 77.0936 8.71406 76.6657ZM8.63613 80.55C8.26054 81.1112 7.62543 81.4265 7.03676 81.7195C6.39419 82.0398 5.73256 82.3576 5.19032 82.8377V77.7284H6.68936C7.52843 77.7284 8.45289 77.9859 8.78454 78.8466C8.98684 79.3714 8.95202 80.0757 8.63613 80.55Z" fill="#211A11"/>
<path d="M20.3405 76.5407C18.9708 75.7677 17.0075 75.9961 15.9487 77.1871C15.4338 77.7657 15.1727 78.5106 15.1262 79.2762C15.1146 79.4699 15.1188 86.4199 15.1188 86.4199H16.6841V83.0537C17.6061 82.937 18.6384 83.0264 19.4119 83.5876C20.1051 84.09 20.4094 84.8812 20.411 85.7172C20.411 85.9514 20.411 86.4199 20.411 86.4199H21.9772V79.6064C21.9756 78.3567 21.4623 77.1739 20.3405 76.5407ZM20.3248 82.606C19.3945 81.6641 17.9676 81.3346 16.6841 81.5391V79.8788C16.6841 79.5733 16.6767 79.2679 16.7554 78.9691C16.9055 78.3964 17.3416 77.9238 17.9054 77.7351C18.4933 77.5373 19.174 77.6266 19.6731 77.9983C20.1739 78.3716 20.4052 78.9451 20.411 79.5576C20.4152 80.0344 20.411 80.5119 20.411 80.9887V82.7044C20.382 82.6722 20.3555 82.6366 20.3248 82.606Z" fill="#211A11"/>
<path d="M32.7421 82.6449C32.5613 82.5488 32.3682 82.4694 32.1658 82.4057C32.6683 82.13 33.1658 81.7899 33.5173 81.3305C33.8432 80.9042 34.0289 80.4126 34.0877 79.8812C34.2096 78.7672 33.8448 77.7053 32.9261 77.0258C31.7024 76.1186 30.1544 76.2593 28.7176 76.2593H27.2227V86.4199H28.8038C28.8038 86.1186 28.793 85.8149 28.8071 85.5136C28.8386 84.8423 29.1354 84.1943 29.7233 83.8351C30.2978 83.4849 31.0822 83.4436 31.6949 83.7175C32.3126 83.994 32.7131 84.5866 32.8134 85.2454C32.8723 85.6295 32.8441 86.0325 32.8441 86.4199H34.4409C34.4409 85.862 34.4716 85.2943 34.3481 84.7463C34.1433 83.8433 33.5596 83.081 32.7421 82.6449ZM30.3542 77.7285C31.3608 77.7285 32.3789 78.2193 32.4884 79.3184C32.5414 79.8473 32.4254 80.3712 32.073 80.7776C31.6874 81.2212 31.1129 81.4894 30.5922 81.7394C29.9604 82.0431 29.3261 82.3593 28.8038 82.8336V77.7285H30.3542Z" fill="#211A11"/>
<path d="M39.3579 77.6818C39.8736 77.5444 40.4076 77.4807 40.939 77.4476V76.259H39.3579V77.6818Z" fill="#211A11"/>
<path d="M39.3579 78.5727V86.42H40.939V78.3385C40.4076 78.3609 39.8728 78.4387 39.3579 78.5727Z" fill="#211A11"/>
<path d="M51.4934 81.5429C50.9263 81.0984 50.2473 80.8426 49.5765 80.5977C48.9547 80.3717 48.2317 80.1325 47.7823 79.6202C47.3669 79.1476 47.4598 78.3985 47.8876 77.969C48.3304 77.5253 49.0409 77.426 49.6238 77.6106C50.2821 77.8183 50.6792 78.4101 50.6792 79.0888H52.2446C52.2446 78.3439 52.0058 77.6279 51.4926 77.0792C50.9951 76.5478 50.3095 76.2317 49.5923 76.1381C48.8469 76.0405 48.0742 76.1373 47.415 76.5122C46.7965 76.8632 46.275 77.421 46.0536 78.1055C45.8422 78.7594 45.8886 79.5755 46.2252 80.1813C46.6008 80.8559 47.279 81.2615 47.9714 81.5569C48.7242 81.8772 49.5923 82.0742 50.2655 82.5535C50.5366 82.7463 50.7622 82.9938 50.8426 83.324C50.9213 83.6468 50.8923 84.011 50.7423 84.309C50.3766 85.0348 49.4662 85.2567 48.7209 85.1135C47.8851 84.9537 47.2815 84.2568 47.2815 83.4027H45.7311C45.7311 84.2295 46.0005 85.0092 46.5934 85.5977C47.1804 86.182 47.9954 86.4973 48.8137 86.5627C49.6719 86.6314 50.5574 86.4576 51.2679 85.956C51.9213 85.4934 52.3624 84.7766 52.4478 83.9779C52.5464 83.0459 52.2446 82.1322 51.4934 81.5429Z" fill="#211A11"/>
<path d="M66.2283 81.7616C66.5782 81.3279 66.919 80.8711 67.1503 80.3612C67.3783 79.858 67.4604 79.3009 67.3991 78.7522C67.2822 77.7077 66.5583 76.8411 65.6148 76.4107C64.6505 75.9712 63.4359 75.9919 62.4923 76.4736C61.5397 76.9594 60.8565 77.8873 60.7993 78.9682C60.7404 80.0732 61.2553 81.0498 62.1259 81.7145L63.018 80.5739C62.698 80.2685 62.4443 79.8985 62.3713 79.4549C62.3008 79.0278 62.3738 78.5966 62.6341 78.2448C63.1449 77.5554 64.1705 77.3476 64.9291 77.7284C65.308 77.9179 65.6264 78.2473 65.7624 78.652C65.9042 79.0733 65.837 79.5575 65.6571 79.9565C65.4747 80.3595 65.1845 80.7039 64.91 81.0465C63.8529 82.3667 62.7958 83.686 61.7395 85.0053C61.3623 85.4771 60.9842 85.9489 60.6069 86.4198H67.763V84.9664H63.6581L66.2283 81.7616Z" fill="#211A11"/>
<path d="M81.1042 77.6192C79.5273 76.0805 77.0573 75.6667 75.0558 76.5887C73.0369 77.519 71.8215 79.6586 72.0312 81.8635C72.2368 84.0254 73.8553 85.8786 75.9587 86.4108C78.0929 86.9504 80.4343 86.1559 81.712 84.3482C82.9963 82.5306 82.959 79.9789 81.6183 78.2019C81.4616 77.995 81.29 77.8005 81.1042 77.6192ZM80.7519 82.8013C80.1342 84.2489 78.6766 85.1792 77.0971 85.084C75.5666 84.993 74.2375 83.898 73.7939 82.4421C73.3387 80.9473 73.8793 79.2779 75.1213 78.331C76.3692 77.3808 78.136 77.3469 79.4253 78.2383C80.8663 79.2348 81.4392 81.1873 80.7519 82.8013Z" fill="#211A11"/>
<path d="M92.7232 81.7616C93.0731 81.3279 93.4139 80.8711 93.6452 80.3612C93.8732 79.858 93.9553 79.3009 93.8939 78.7522C93.7762 77.7077 93.0532 76.8411 92.1097 76.4107C91.1454 75.9712 89.9308 75.9919 88.9872 76.4736C88.0346 76.9594 87.3514 77.8873 87.2942 78.9682C87.2353 80.0732 87.7493 81.0498 88.6207 81.7145L89.5129 80.5739C89.1928 80.2685 88.9391 79.8985 88.8662 79.4549C88.7957 79.0278 88.8678 78.5966 89.129 78.2448C89.6397 77.5554 90.6654 77.3476 91.424 77.7284C91.8029 77.9179 92.1213 78.2473 92.2573 78.652C92.399 79.0733 92.3319 79.5575 92.152 79.9565C91.9696 80.3595 91.6794 80.7039 91.4041 81.0465C90.3478 82.3667 89.2907 83.686 88.2344 85.0053C87.8563 85.4771 87.4791 85.9489 87.1018 86.4198H94.2579V84.9664H90.153L92.7232 81.7616Z" fill="#211A11"/>
<path d="M103.872 78.9791V82.4231C103.119 81.8876 102.178 81.7245 101.39 81.2536C100.71 80.8472 100.493 80.1362 100.49 79.3839C100.486 78.6472 100.49 76.2594 100.49 76.2594H98.908C98.908 76.2594 98.9063 78.3741 98.908 79.4319C98.9096 80.5145 99.1766 81.5731 100.065 82.27C100.612 82.6995 101.27 82.9644 101.923 83.192C102.505 83.3956 103.123 83.6505 103.523 84.1414C103.837 84.5279 103.872 84.9906 103.872 85.4673V86.42H105.391V78.9791H103.872Z" fill="#211A11"/>
<path d="M53.8041 111.553C53.8041 116.16 50.0607 119.896 45.4458 119.896C40.8301 119.896 37.09 116.16 37.09 111.553C37.09 106.946 40.8301 103.211 45.4458 103.211C50.0607 103.211 53.8041 106.946 53.8041 111.553ZM45.4458 104.602C41.6004 104.602 38.4829 107.714 38.4829 111.553C38.4829 115.392 41.6004 118.505 45.4458 118.505C49.2929 118.505 52.4112 115.392 52.4112 111.553C52.4112 107.714 49.2929 104.602 45.4458 104.602Z" fill="#211A11"/>
<path d="M71.9115 111.553C71.9115 116.16 68.1689 119.896 63.554 119.896C58.9383 119.896 55.1965 116.16 55.1965 111.553C55.1965 106.946 58.9383 103.211 63.554 103.211C68.1689 103.211 71.9115 106.946 71.9115 111.553ZM63.554 104.602C59.7069 104.602 56.5903 107.714 56.5903 111.553C56.5903 115.392 59.7069 118.505 63.554 118.505C67.4003 118.505 70.5186 115.392 70.5186 111.553C70.5186 107.714 67.4003 104.602 63.554 104.602Z" fill="#211A11"/>
<path d="M36.3946 95.566C31.7781 95.566 28.0371 99.2988 28.0371 103.906C28.0371 108.513 31.7781 112.249 36.3946 112.249C36.6384 112.249 36.878 112.235 37.1176 112.215C37.101 111.997 37.0894 111.776 37.0894 111.553C37.0894 111.304 37.1035 111.063 37.1234 110.821C36.883 110.844 36.6409 110.856 36.3946 110.856C32.5475 110.856 29.4292 107.746 29.4292 103.906C29.4292 100.066 32.5475 96.9532 36.3946 96.9532C40.24 96.9532 43.3584 100.066 43.3584 103.906C43.3584 106.99 41.3469 109.602 38.5611 110.512C38.5105 110.852 38.4823 111.201 38.4823 111.553C38.4823 111.698 38.4881 111.838 38.4964 111.981C42.094 111.049 44.7496 107.786 44.7496 103.906C44.7496 99.2988 41.0095 95.566 36.3946 95.566Z" fill="#211A11"/>
<path d="M72.6066 95.5643C68.2156 95.5643 64.618 98.9446 64.2789 103.242C64.7499 103.282 65.2109 103.361 65.6569 103.479C65.8783 99.8384 68.9054 96.9532 72.6066 96.9532C76.4545 96.9532 79.572 100.066 79.572 103.905C79.572 107.746 76.4545 110.856 72.6066 110.856C69.1168 110.856 66.2232 108.292 65.7216 104.947C65.2623 104.797 64.7797 104.694 64.2839 104.641C64.6562 108.902 68.2405 112.249 72.6066 112.249C77.2214 112.249 80.9632 108.513 80.9632 103.905C80.9632 99.2988 77.2214 95.5643 72.6066 95.5643Z" fill="#211A11"/>
<path d="M54.5007 95.5643C50.108 95.5643 46.5097 98.9487 46.1714 103.242C46.644 103.284 47.1033 103.364 47.551 103.479C47.7724 99.8384 50.7979 96.9532 54.5007 96.9532C58.347 96.9532 61.4644 100.066 61.4644 103.905C61.4644 106.99 59.453 109.602 56.6688 110.512C56.6191 110.854 56.5901 111.201 56.5901 111.553C56.5901 111.697 56.5942 111.838 56.6042 111.981C60.2 111.049 62.8574 107.786 62.8574 103.905C62.8574 99.2988 59.1164 95.5643 54.5007 95.5643Z" fill="#211A11"/>
<path d="M55.197 111.553C55.197 111.304 55.2094 111.062 55.231 110.821C54.9897 110.844 54.7468 110.856 54.5005 110.856C51.0083 110.856 48.1172 108.291 47.6122 104.948C47.1529 104.797 46.6737 104.695 46.1779 104.643C46.5501 108.902 50.1336 112.248 54.5005 112.248C54.7443 112.248 54.9856 112.234 55.2235 112.215C55.2053 111.997 55.197 111.776 55.197 111.553Z" fill="#211A11"/>
<path d="M58.0867 58.8579C57.2128 58.5334 55.7427 58.5036 54.4999 59.5134C53.257 58.5036 51.787 58.5334 50.9131 58.8579C50.1827 59.1294 49.6098 59.3106 48.5336 59.3015C49.5998 61.5205 51.8716 63.0509 54.4999 63.0509C57.1282 63.0509 59.4 61.5205 60.4662 59.3015C59.39 59.3106 58.8171 59.1294 58.0867 58.8579Z" fill="#211A11"/>
<path d="M54.5007 3.10381C36.513 3.10381 21.9297 17.661 21.9297 35.6183C21.9297 51.0106 32.646 63.9058 47.037 67.2745C35.601 61.167 30.938 47.1627 36.4525 35.4321C37.3438 40.0646 40.3692 44.1922 44.8896 46.3342C38.9937 32.5683 43.335 16.3855 55.5023 7.43587C53.1086 15.6175 56.7849 23.1038 64.6707 28.756C73.6906 35.2202 74.072 48.4109 66.1117 55.5413C69.2739 54.8063 72.2156 53.0682 74.4128 50.4072C73.0572 57.3796 68.6778 63.6881 61.9628 67.2745C76.3546 63.9058 87.0701 51.0106 87.0701 35.6183C87.0701 17.661 72.4884 3.10381 54.5007 3.10381Z" fill="#211A11"/>
<path d="M78.2535 65.1497H78.8687V67.276H79.1647V65.1497H79.7799V64.8725H78.2535V65.1497ZM82.5028 64.8725C82.0434 64.8725 81.677 65.0719 81.4987 65.4013C81.3213 65.0719 80.9548 64.8725 80.4946 64.8725H80.3355V67.276H80.6323V65.1688H80.6431C81.0734 65.1688 81.3511 65.4717 81.3511 65.9377V66.5361H81.6471V65.9377C81.6471 65.4717 81.9249 65.1688 82.3544 65.1688H82.3651V67.276H82.662V64.8725H82.5028Z" fill="#211A11"/>
</svg>
